<svg width="70" height="70" viewBox="0 0 70 70" fill="none" xmlns="http://www.w3.org/2000/svg">
<path fill-rule="evenodd" clip-rule="evenodd" d="M0.538379 38.3992C1.35445 40.9108 3.53255 43.0889 7.88874 47.4451L22.5526 62.1089L22.5527 62.109C26.9088 66.4651 29.0869 68.6432 31.5985 69.4593C33.8078 70.1771 36.1876 70.1771 38.3969 69.4593C40.9085 68.6432 43.0866 66.4651 47.4428 62.109L47.4428 62.1089L62.1067 47.4451C66.4629 43.0889 68.641 40.9108 69.4571 38.3992C70.1749 36.1899 70.1749 33.8101 69.4571 31.6008C68.641 29.0892 66.4629 26.9111 62.1067 22.5549L47.4428 7.89107L47.4428 7.89104C43.0866 3.53488 40.9085 1.3568 38.3969 0.540727C36.1876 -0.177109 33.8078 -0.177109 31.5985 0.540727C29.0869 1.3568 26.9088 3.53489 22.5526 7.89107L7.88874 22.5549C3.53255 26.9111 1.35445 29.0892 0.538379 31.6008C-0.17946 33.8101 -0.17946 36.1899 0.538379 38.3992ZM34.9961 19.0177C26.1694 19.0177 19.0139 26.1732 19.0139 35C19.0139 43.8267 26.1694 50.9822 34.9961 50.9822C43.8229 50.9822 50.9784 43.8267 50.9784 35C50.9784 26.1732 43.8229 19.0177 34.9961 19.0177Z" fill="#262E33"/>
</svg>
