<svg width="185" height="70" viewBox="0 0 185 70" fill="none" xmlns="http://www.w3.org/2000/svg">
<path id="logo" fill-rule="evenodd" clip-rule="evenodd" d="M1.23226 38.3992C2.04833 40.9108 4.22643 43.0889 8.58262 47.4451L23.2465 62.1089C27.6027 66.4651 29.7808 68.6432 32.2924 69.4593C34.5017 70.1771 36.8815 70.1771 39.0908 69.4593C41.6024 68.6432 43.7805 66.4651 48.1366 62.109L62.8006 47.4451C67.1568 43.0889 69.3349 40.9108 70.151 38.3992C70.8688 36.1899 70.8688 33.8101 70.151 31.6008C69.3349 29.0892 67.1568 26.9111 62.8006 22.5549L48.1367 7.89107C43.7805 3.53491 41.6024 1.3568 39.0908 0.540727C36.8815 -0.177109 34.5017 -0.177109 32.2924 0.540727C29.7808 1.3568 27.6027 3.53489 23.2465 7.89107L8.58262 22.5549C4.22643 26.9111 2.04833 29.0892 1.23226 31.6008C0.514419 33.8101 0.514419 36.1899 1.23226 38.3992ZM35.69 19.0177C26.8633 19.0177 19.7077 26.1732 19.7077 35C19.7077 43.8267 26.8633 50.9822 35.69 50.9822C44.5167 50.9822 51.6723 43.8267 51.6723 35C51.6723 26.1732 44.5167 19.0177 35.69 19.0177Z" fill="#262E33"/>
<path id="d1" d="M83.1078 55.9289C83.1078 55.0889 83.2778 54.3539 83.6178 53.7239C83.9578 53.0839 84.4228 52.5939 85.0128 52.2539C85.6128 51.9039 86.2878 51.7289 87.0378 51.7289C87.7578 51.7289 88.4078 51.9039 88.9878 52.2539C89.5678 52.6039 89.9928 53.0589 90.2628 53.6189V48.9389H91.3128V60.0389H90.2628V58.2089C90.0128 58.7789 89.6028 59.2489 89.0328 59.6189C88.4628 59.9789 87.7928 60.1589 87.0228 60.1589C86.2728 60.1589 85.5978 59.9839 84.9978 59.6339C84.4078 59.2839 83.9428 58.7889 83.6028 58.1489C83.2728 57.5089 83.1078 56.7689 83.1078 55.9289ZM90.2628 55.9439C90.2628 55.2839 90.1278 54.7039 89.8578 54.2039C89.5878 53.7039 89.2178 53.3189 88.7478 53.0489C88.2878 52.7789 87.7778 52.6439 87.2178 52.6439C86.6378 52.6439 86.1178 52.7739 85.6578 53.0339C85.1978 53.2939 84.8328 53.6739 84.5628 54.1739C84.3028 54.6639 84.1728 55.2489 84.1728 55.9289C84.1728 56.5989 84.3028 57.1889 84.5628 57.6989C84.8328 58.1989 85.1978 58.5839 85.6578 58.8539C86.1178 59.1139 86.6378 59.2439 87.2178 59.2439C87.7778 59.2439 88.2878 59.1089 88.7478 58.8389C89.2178 58.5689 89.5878 58.1839 89.8578 57.6839C90.1278 57.1839 90.2628 56.6039 90.2628 55.9439Z" fill="#262E33"/>
<path id="e2" d="M101.195 55.5239C101.195 55.8839 101.185 56.1589 101.165 56.3489H94.3698C94.3998 56.9689 94.5498 57.4989 94.8198 57.9389C95.0898 58.3789 95.4448 58.7139 95.8848 58.9439C96.3248 59.1639 96.8048 59.2739 97.3248 59.2739C98.0048 59.2739 98.5748 59.1089 99.0348 58.7789C99.5048 58.4489 99.8148 58.0039 99.9648 57.4439H101.075C100.875 58.2439 100.445 58.8989 99.7848 59.4089C99.1348 59.9089 98.3148 60.1589 97.3248 60.1589C96.5548 60.1589 95.8648 59.9889 95.2548 59.6489C94.6448 59.2989 94.1648 58.8089 93.8148 58.1789C93.4748 57.5389 93.3048 56.7939 93.3048 55.9439C93.3048 55.0939 93.4748 54.3489 93.8148 53.7089C94.1548 53.0689 94.6298 52.5789 95.2398 52.2389C95.8498 51.8989 96.5448 51.7289 97.3248 51.7289C98.1048 51.7289 98.7848 51.8989 99.3648 52.2389C99.9548 52.5789 100.405 53.0389 100.715 53.6189C101.035 54.1889 101.195 54.8239 101.195 55.5239ZM100.13 55.4939C100.14 54.8839 100.015 54.3639 99.7548 53.9339C99.5048 53.5039 99.1598 53.1789 98.7198 52.9589C98.2798 52.7389 97.7998 52.6289 97.2798 52.6289C96.4998 52.6289 95.8348 52.8789 95.2848 53.3789C94.7348 53.8789 94.4298 54.5839 94.3698 55.4939H100.13Z" fill="#262E33"/>
<path id="v3" d="M106.101 59.0189L108.861 51.8489H109.971L106.686 60.0389H105.501L102.216 51.8489H103.341L106.101 59.0189Z" fill="#262E33"/>
<path id="e4" d="M118.879 55.5239C118.879 55.8839 118.869 56.1589 118.849 56.3489H112.054C112.084 56.9689 112.234 57.4989 112.504 57.9389C112.774 58.3789 113.129 58.7139 113.569 58.9439C114.009 59.1639 114.489 59.2739 115.009 59.2739C115.689 59.2739 116.259 59.1089 116.719 58.7789C117.189 58.4489 117.499 58.0039 117.649 57.4439H118.759C118.559 58.2439 118.129 58.8989 117.469 59.4089C116.819 59.9089 115.999 60.1589 115.009 60.1589C114.239 60.1589 113.549 59.9889 112.939 59.6489C112.329 59.2989 111.849 58.8089 111.499 58.1789C111.159 57.5389 110.989 56.7939 110.989 55.9439C110.989 55.0939 111.159 54.3489 111.499 53.7089C111.839 53.0689 112.314 52.5789 112.924 52.2389C113.534 51.8989 114.229 51.7289 115.009 51.7289C115.789 51.7289 116.469 51.8989 117.049 52.2389C117.639 52.5789 118.089 53.0389 118.399 53.6189C118.719 54.1889 118.879 54.8239 118.879 55.5239ZM117.814 55.4939C117.824 54.8839 117.699 54.3639 117.439 53.9339C117.189 53.5039 116.844 53.1789 116.404 52.9589C115.964 52.7389 115.484 52.6289 114.964 52.6289C114.184 52.6289 113.519 52.8789 112.969 53.3789C112.419 53.8789 112.114 54.5839 112.054 55.4939H117.814Z" fill="#262E33"/>
<path id="l5" d="M121.925 48.9389V60.0389H120.875V48.9389H121.925Z" fill="#262E33"/>
<path id="o6" d="M127.963 60.1589C127.193 60.1589 126.498 59.9889 125.878 59.6489C125.268 59.2989 124.783 58.8089 124.423 58.1789C124.073 57.5389 123.898 56.7939 123.898 55.9439C123.898 55.0939 124.078 54.3539 124.438 53.7239C124.798 53.0839 125.288 52.5939 125.908 52.2539C126.528 51.9039 127.223 51.7289 127.993 51.7289C128.763 51.7289 129.458 51.9039 130.078 52.2539C130.708 52.5939 131.198 53.0839 131.548 53.7239C131.908 54.3539 132.088 55.0939 132.088 55.9439C132.088 56.7839 131.908 57.5239 131.548 58.1639C131.188 58.8039 130.693 59.2989 130.063 59.6489C129.433 59.9889 128.733 60.1589 127.963 60.1589ZM127.963 59.2439C128.503 59.2439 129.003 59.1239 129.463 58.8839C129.923 58.6339 130.293 58.2639 130.573 57.7739C130.863 57.2739 131.008 56.6639 131.008 55.9439C131.008 55.2239 130.868 54.6189 130.588 54.1289C130.308 53.6289 129.938 53.2589 129.478 53.0189C129.018 52.7689 128.518 52.6439 127.978 52.6439C127.438 52.6439 126.938 52.7689 126.478 53.0189C126.018 53.2589 125.648 53.6289 125.368 54.1289C125.098 54.6189 124.963 55.2239 124.963 55.9439C124.963 56.6639 125.098 57.2739 125.368 57.7739C125.648 58.2639 126.013 58.6339 126.463 58.8839C126.923 59.1239 127.423 59.2439 127.963 59.2439Z" fill="#262E33"/>
<path id="p7" d="M135.112 53.6489C135.372 53.0989 135.782 52.6439 136.342 52.2839C136.912 51.9139 137.587 51.7289 138.367 51.7289C139.107 51.7289 139.772 51.9039 140.362 52.2539C140.962 52.5939 141.427 53.0839 141.757 53.7239C142.097 54.3539 142.267 55.0889 142.267 55.9289C142.267 56.7689 142.097 57.5089 141.757 58.1489C141.427 58.7889 140.962 59.2839 140.362 59.6339C139.772 59.9839 139.107 60.1589 138.367 60.1589C137.597 60.1589 136.927 59.9789 136.357 59.6189C135.787 59.2489 135.372 58.7889 135.112 58.2389V63.9089H134.077V51.8489H135.112V53.6489ZM141.202 55.9289C141.202 55.2489 141.067 54.6639 140.797 54.1739C140.537 53.6739 140.177 53.2939 139.717 53.0339C139.257 52.7739 138.737 52.6439 138.157 52.6439C137.597 52.6439 137.082 52.7789 136.612 53.0489C136.152 53.3189 135.787 53.7039 135.517 54.2039C135.247 54.7039 135.112 55.2839 135.112 55.9439C135.112 56.6039 135.247 57.1839 135.517 57.6839C135.787 58.1839 136.152 58.5689 136.612 58.8389C137.082 59.1089 137.597 59.2439 138.157 59.2439C138.737 59.2439 139.257 59.1139 139.717 58.8539C140.177 58.5839 140.537 58.1989 140.797 57.6989C141.067 57.1889 141.202 56.5989 141.202 55.9289Z" fill="#262E33"/>
<path id="m8" d="M154.024 51.6989C154.984 51.6989 155.764 52.0039 156.364 52.6139C156.974 53.2139 157.279 54.0889 157.279 55.2389V60.0389H156.244V55.3589C156.244 54.4689 156.029 53.7889 155.599 53.3189C155.169 52.8489 154.584 52.6139 153.844 52.6139C153.074 52.6139 152.459 52.8689 151.999 53.3789C151.539 53.8889 151.309 54.6289 151.309 55.5989V60.0389H150.274V55.3589C150.274 54.4689 150.059 53.7889 149.629 53.3189C149.199 52.8489 148.609 52.6139 147.859 52.6139C147.089 52.6139 146.474 52.8689 146.014 53.3789C145.554 53.8889 145.324 54.6289 145.324 55.5989V60.0389H144.274V51.8489H145.324V53.2589C145.584 52.7489 145.954 52.3639 146.434 52.1039C146.914 51.8339 147.449 51.6989 148.039 51.6989C148.749 51.6989 149.369 51.8689 149.899 52.2089C150.439 52.5489 150.829 53.0489 151.069 53.7089C151.289 53.0589 151.664 52.5639 152.194 52.2239C152.734 51.8739 153.344 51.6989 154.024 51.6989Z" fill="#262E33"/>
<path id="e9" d="M167.096 55.5239C167.096 55.8839 167.086 56.1589 167.066 56.3489H160.271C160.301 56.9689 160.451 57.4989 160.721 57.9389C160.991 58.3789 161.346 58.7139 161.786 58.9439C162.226 59.1639 162.706 59.2739 163.226 59.2739C163.906 59.2739 164.476 59.1089 164.936 58.7789C165.406 58.4489 165.716 58.0039 165.866 57.4439H166.976C166.776 58.2439 166.346 58.8989 165.686 59.4089C165.036 59.9089 164.216 60.1589 163.226 60.1589C162.456 60.1589 161.766 59.9889 161.156 59.6489C160.546 59.2989 160.066 58.8089 159.716 58.1789C159.376 57.5389 159.206 56.7939 159.206 55.9439C159.206 55.0939 159.376 54.3489 159.716 53.7089C160.056 53.0689 160.531 52.5789 161.141 52.2389C161.751 51.8989 162.446 51.7289 163.226 51.7289C164.006 51.7289 164.686 51.8989 165.266 52.2389C165.856 52.5789 166.306 53.0389 166.616 53.6189C166.936 54.1889 167.096 54.8239 167.096 55.5239ZM166.031 55.4939C166.041 54.8839 165.916 54.3639 165.656 53.9339C165.406 53.5039 165.061 53.1789 164.621 52.9589C164.181 52.7389 163.701 52.6289 163.181 52.6289C162.401 52.6289 161.736 52.8789 161.186 53.3789C160.636 53.8789 160.331 54.5839 160.271 55.4939H166.031Z" fill="#262E33"/>
<path id="n10" d="M172.932 51.6989C173.912 51.6989 174.712 52.0039 175.332 52.6139C175.952 53.2139 176.262 54.0889 176.262 55.2389V60.0389H175.227V55.3589C175.227 54.4689 175.002 53.7889 174.552 53.3189C174.112 52.8489 173.507 52.6139 172.737 52.6139C171.947 52.6139 171.317 52.8639 170.847 53.3639C170.377 53.8639 170.142 54.5989 170.142 55.5689V60.0389H169.092V51.8489H170.142V53.2439C170.402 52.7439 170.777 52.3639 171.267 52.1039C171.757 51.8339 172.312 51.6989 172.932 51.6989Z" fill="#262E33"/>
<path id="t11" d="M180.024 52.7339V57.8189C180.024 58.3189 180.119 58.6639 180.309 58.8539C180.499 59.0439 180.834 59.1389 181.314 59.1389H182.274V60.0389H181.149C180.409 60.0389 179.859 59.8689 179.499 59.5289C179.139 59.1789 178.959 58.6089 178.959 57.8189V52.7339H177.819V51.8489H178.959V49.7939H180.024V51.8489H182.274V52.7339H180.024Z" fill="#262E33"/>
<path id="f12" d="M102.388 12.3269V17.2989H89.5838V25.1749H99.3958V30.0589H89.5838V43.0389H83.4238V12.3269H102.388Z" fill="#262E33"/>
<path id="u13" d="M112.828 12.3269V31.3349C112.828 33.4176 113.37 35.0162 114.456 36.1309C115.541 37.2162 117.066 37.7589 119.032 37.7589C121.026 37.7589 122.566 37.2162 123.652 36.1309C124.737 35.0162 125.28 33.4176 125.28 31.3349V12.3269H131.484V31.2909C131.484 33.9016 130.912 36.1162 129.768 37.9349C128.653 39.7242 127.142 41.0736 125.236 41.9829C123.358 42.8922 121.261 43.3469 118.944 43.3469C116.656 43.3469 114.573 42.8922 112.696 41.9829C110.848 41.0736 109.381 39.7242 108.296 37.9349C107.21 36.1162 106.668 33.9016 106.668 31.2909V12.3269H112.828Z" fill="#262E33"/>
<path id="l14" d="M143.595 38.1549H153.715V43.0389H137.435V12.3269H143.595V38.1549Z" fill="#262E33"/>
<path id="l15" d="M163.791 38.1549H173.911V43.0389H157.631V12.3269H163.791V38.1549Z" fill="#262E33"/>
<path id="bounce-in-top" d="M180.554 43.3469C179.439 43.3469 178.515 43.0096 177.782 42.3349C177.078 41.6309 176.726 40.7656 176.726 39.7389C176.726 38.7122 177.078 37.8616 177.782 37.1869C178.515 36.4829 179.439 36.1309 180.554 36.1309C181.639 36.1309 182.534 36.4829 183.238 37.1869C183.942 37.8616 184.294 38.7122 184.294 39.7389C184.294 40.7656 183.942 41.6309 183.238 42.3349C182.534 43.0096 181.639 43.3469 180.554 43.3469Z" fill="#262E33"/>
</svg>
